<svg width="89" height="28" viewBox="0 0 89 28" fill="none" xmlns="http://www.w3.org/2000/svg">
<g clip-path="url(#clip0)">
<path d="M18.9693 14.9584C19.1481 14.8555 19.3521 14.7262 19.5309 14.6224C20.0993 14.228 20.6207 13.7684 21.085 13.2527C20.8563 11.8568 20.335 10.5269 19.5561 9.35255C19.5528 9.35244 19.5494 9.35303 19.5463 9.35427C19.5432 9.35551 19.5404 9.35739 19.538 9.35979C19.5357 9.36218 19.5338 9.36504 19.5326 9.36819C19.5314 9.37134 19.5308 9.37471 19.5309 9.3781C19.2558 9.68697 18.9478 9.96405 18.6125 10.2043C18.4572 10.3252 18.2955 10.4373 18.1281 10.5403C18.0622 10.5639 18.0004 10.5981 17.9453 10.6417C18.0201 10.7722 18.0801 10.9109 18.1241 11.0552C18.3021 11.5453 18.4557 12.0362 18.6085 12.5526C18.7952 13.3429 18.9159 14.1477 18.9693 14.9584Z" fill="white"/>
<path d="M21.2372 17.7239C21.2367 17.7214 21.2367 17.7188 21.2372 17.7163V17.7239Z" fill="white"/>
<path d="M19.5294 18.6527C20.0591 18.2952 20.5617 17.8982 21.0331 17.465C21.1661 16.8533 21.2428 16.2304 21.2623 15.6043C21.2623 15.0866 21.236 14.5692 21.1835 14.0542C20.6931 14.5668 20.1368 15.0101 19.5294 15.3721C19.3559 15.4763 19.1772 15.5711 18.9938 15.6562V15.7855C18.9998 16.8567 18.8712 17.9242 18.611 18.9624C18.585 19.0423 18.5598 19.1173 18.5322 19.2219C18.5574 19.1955 18.5826 19.1955 18.611 19.1692C18.9277 19.0171 19.2345 18.8446 19.5294 18.6527Z" fill="white"/>
<path d="M22.2224 11.0151C21.9062 9.74671 21.3163 8.56516 20.4951 7.55566C20.3849 8.03169 20.188 8.48269 19.9146 8.8855C20.7074 9.99048 21.2702 11.2473 21.5687 12.5797C21.8619 12.0939 22.0822 11.5666 22.2224 11.0151Z" fill="white"/>
<path d="M18.3047 15.9897C18.2543 16.0161 18.1779 16.0416 18.1267 16.0696C17.8975 16.1494 17.6935 16.2244 17.4635 16.3019C17.1326 16.4048 16.775 16.5086 16.4182 16.586C16.1638 16.6379 15.9086 16.689 15.6305 16.7409C15.1137 16.8101 14.5936 16.8524 14.0725 16.8678V20.3001C14.5935 20.2969 15.1135 20.2539 15.6282 20.1716C15.9086 20.1197 16.1638 20.0679 16.4158 20.012C16.7727 19.909 17.1051 19.806 17.4611 19.6767C17.5675 19.6448 17.6702 19.6014 17.7675 19.5474C17.9159 19.0381 18.0351 18.5205 18.1243 17.9973C18.237 17.334 18.2973 16.6627 18.3047 15.9897Z" fill="white"/>
<path d="M17.5405 20.229C17.5145 20.229 17.4893 20.2545 17.4617 20.2545C17.1207 20.3817 16.7714 20.4851 16.4165 20.5643L15.6517 20.7191H15.6265C15.1112 20.7931 14.5912 20.8278 14.0708 20.8229V22.0042C15.1422 21.9646 16.1972 21.7251 17.1829 21.2978L17.0789 21.3377C17.2065 21.0525 17.3339 20.7681 17.461 20.4844C17.4893 20.3839 17.5145 20.3056 17.5405 20.229Z" fill="white"/>
<path d="M17.4634 9.58466C17.5658 9.7906 17.6422 9.9718 17.7446 10.153L18.1266 9.92311C18.2942 9.8112 18.4559 9.6905 18.611 9.56151C18.842 9.37531 19.0554 9.16767 19.2483 8.9413C19.0495 8.68014 18.8368 8.43019 18.611 8.19257C18.4582 8.03771 18.2794 7.88206 18.1266 7.72721C17.9169 7.53252 17.6954 7.35125 17.4634 7.18442C17.209 7.00402 16.9538 6.82362 16.6986 6.66797C16.6082 6.72537 16.5146 6.77735 16.4182 6.82362C16.2141 6.95213 15.9597 7.02956 15.6533 7.10779C15.9292 7.38871 16.1848 7.68935 16.4182 8.00738C16.8043 8.50643 17.1537 9.03361 17.4634 9.58466Z" fill="white"/>
<path d="M15.0421 7.2334C14.7609 7.25974 14.4301 7.28528 14.0725 7.31322V11.2652C14.597 11.2209 15.1171 11.1347 15.6282 11.0074C15.8978 10.9571 16.1617 10.8793 16.4158 10.7751C16.6711 10.6953 16.9263 10.5684 17.1807 10.4646C16.9565 9.97463 16.701 9.50001 16.4158 9.04376C16.1828 8.64471 15.9195 8.26468 15.6282 7.9071C15.4464 7.67078 15.2507 7.44581 15.0421 7.2334Z" fill="white"/>
<path d="M18.1267 13.615C17.9787 12.7698 17.7567 11.9395 17.4635 11.1342C17.4382 11.0543 17.4123 11.0056 17.3847 10.9282C17.0726 11.0837 16.7486 11.2131 16.4158 11.3154C16.1574 11.3993 15.8944 11.4683 15.6282 11.5221C15.119 11.6539 14.5976 11.7318 14.0725 11.7544V16.25C14.5948 16.2507 15.116 16.1989 15.6282 16.0951C15.8953 16.0709 16.1592 16.019 16.4158 15.9402C16.7716 15.864 17.121 15.7602 17.4611 15.6297C17.6863 15.5551 17.9076 15.4691 18.1243 15.3719C18.1817 15.3411 18.2412 15.3144 18.3023 15.2921C18.2795 14.7262 18.2031 14.1538 18.1267 13.615Z" fill="white"/>
<path d="M21.4663 17.3101V17.3179C21.4663 17.3118 21.4723 17.3075 21.4749 17.3022L21.4663 17.3101Z" fill="white"/>
<path d="M9.45898 15.5003C10.0917 15.7596 10.7496 15.9504 11.4219 16.0694C12.0716 16.1775 12.727 16.2466 13.3848 16.2762V11.7543C12.7235 11.7573 12.0643 11.6785 11.4219 11.5196C10.9824 11.4202 10.5549 11.273 10.1466 11.0806C9.68741 12.4519 9.48419 13.9502 9.45898 15.5003Z" fill="white"/>
<path d="M13.3848 20.7966C12.7241 20.7549 12.0678 20.6602 11.4219 20.5132C10.9879 20.4094 10.5295 20.2801 10.1214 20.1508C10.5807 20.1771 10.9879 20.2035 11.4219 20.2306C12.0591 20.2562 12.6964 20.2817 13.3848 20.3104V16.8677C12.7246 16.836 12.0681 16.7495 11.4219 16.6091C10.744 16.4638 10.0852 16.2385 9.45901 15.9378V16.0408C9.48422 17.3586 9.38024 17.9565 9.48422 19.2193C9.10021 18.0807 8.91885 16.882 8.9486 15.6792C8.11798 15.2461 7.38123 14.649 6.7817 13.9231C7.43088 14.4887 8.16163 14.9504 8.9486 15.292C8.9738 14.8019 9.02736 14.311 9.0762 13.7938C9.22119 12.8106 9.45156 11.8423 9.76463 10.9002C9.03815 10.5401 8.39418 10.0297 7.87421 9.40197C8.46554 9.91608 9.13749 10.3264 9.8623 10.6161C10.2443 9.58317 10.7547 8.57502 11.418 7.72252C11.6013 7.47243 11.8059 7.239 12.0292 7.02487C11.8203 6.93243 11.6163 6.82905 11.418 6.71516C11.13 6.54382 10.8653 6.33534 10.6303 6.09495H10.6555C10.8964 6.23774 11.1535 6.35057 11.4211 6.431C12.1243 6.64226 12.8546 6.74663 13.588 6.74071C14.4804 6.74071 15.1429 6.63774 15.6273 6.431C15.9381 6.33558 16.2128 6.14653 16.415 5.88901C16.5136 5.77444 16.5679 5.62756 16.5679 5.47553C16.5679 5.3235 16.5136 5.17662 16.415 5.06205C16.3963 5.00864 16.3606 4.9631 16.3134 4.93274C16.1472 4.7731 16.0519 4.67172 16.003 4.61345C14.7073 4.2616 13.349 4.21661 12.0334 4.48196C10.7177 4.74732 9.47996 5.3159 8.4159 6.14371C7.35184 6.97152 6.49001 8.03635 5.89713 9.25578C5.30424 10.4752 4.99619 11.8165 4.99683 13.176C4.99683 17.9373 8.72962 21.8167 13.3848 22.0035V20.7966Z" fill="white"/>
<path d="M13.3848 11.2898V7.3115C13.0581 7.28535 12.734 7.23196 12.416 7.15186C12.0513 7.52728 11.7187 7.93344 11.4219 8.36595C10.9308 9.11285 10.5363 9.92061 10.2483 10.7694C10.6321 10.8996 11.0242 11.0031 11.4219 11.0791C12.0679 11.2141 12.7253 11.2847 13.3848 11.2898Z" fill="white"/>
<path d="M19.5295 19.3246C19.2231 19.4794 18.9175 19.6598 18.6111 19.7891C18.5154 19.8272 18.4218 19.8704 18.3306 19.9184C18.2519 20.0996 18.203 20.3056 18.1266 20.4868C18.0762 20.6392 18.0014 20.7677 17.9502 20.9194C18.981 20.346 19.8877 19.5686 20.6165 18.6333C20.2872 18.8887 19.9076 19.0939 19.5295 19.3246Z" fill="white"/>
<path d="M21.6477 16.9478L21.6365 16.9843C21.6421 16.9721 21.6477 16.9599 21.6525 16.9478H21.6477Z" fill="white"/>
<path d="M17.2091 5.06368C17.2878 5.55458 17.2343 5.96726 17.0303 6.27777C17.1831 6.35759 17.3115 6.45816 17.4635 6.53559C17.6935 6.69524 17.8975 6.8461 18.1267 7.0265C18.2795 7.15581 18.4583 7.28512 18.6111 7.43998C18.9178 7.72414 19.224 8.03412 19.5296 8.3699C19.549 8.40909 19.5757 8.44407 19.6083 8.47287C19.8729 8.08398 20.0698 7.65201 20.1904 7.19572C19.3578 6.27366 18.3431 5.53936 17.2122 5.04053L17.2091 5.06368Z" fill="white"/>
<path d="M21.3386 17.5425V17.5507L21.3435 17.5425H21.3386Z" fill="white"/>
<path d="M22.4857 13.1759C22.4858 12.8291 22.4658 12.4826 22.4259 12.1382C22.244 12.5892 22.0074 13.0155 21.7217 13.4074C21.8493 14.1305 21.8745 14.8801 21.8745 15.6807C21.8745 15.9752 21.8509 16.2698 21.8272 16.542C22.2631 15.4747 22.4868 14.3309 22.4857 13.1759Z" fill="white"/>
<path d="M5.20068 25.4988C5.98836 25.5507 6.88316 25.7319 7.72518 25.5507C8.59163 25.3958 9.33126 24.9041 10.1977 24.5178L13.0278 24.1035C12.1614 24.5689 11.3737 24.6718 10.4781 25.2921C7.92919 26.9979 6.55234 26.4551 5.20068 25.4988Z" fill="white"/>
<path d="M2.44775 22.916C3.72221 23.5099 4.71705 23.9721 6.16952 24.0263C7.23998 24.0782 8.20882 23.9753 9.71407 24.3879C8.43961 24.518 6.62953 24.9563 5.40548 24.8014C4.76825 24.6984 4.15701 24.4143 3.62139 24.1557L2.44775 22.916Z" fill="white"/>
<path d="M5.6853 21.1069C5.99171 21.7008 6.27212 22.4248 6.63051 22.9157C7.39535 23.9231 8.4658 24.1298 9.58824 24.4395C8.89981 23.8975 8.21059 23.3284 7.52295 22.7864L5.6853 21.1069Z" fill="white"/>
<path d="M1.48291 16.4048C1.53411 18.0579 1.48291 18.4977 2.32415 19.8667L3.2158 20.6936C2.70223 18.8856 2.52422 18.0579 1.48291 16.4048Z" fill="white"/>
<path d="M1.22374 19.8667C2.01141 21.4424 1.93816 21.6228 3.69625 22.5806L5.73633 22.9925C5.02191 22.528 3.84591 21.9077 3.49224 21.6755C3.11022 21.4424 1.07093 19.8667 1.22374 19.8667Z" fill="white"/>
<path d="M3.74756 18.624C3.82633 20.8974 3.79876 20.871 5.32842 22.7061C4.9212 21.2103 4.43599 20.0217 3.74756 18.624Z" fill="white"/>
<path d="M9.86621 27.1011L10.6822 27.153C11.3455 25.99 12.2883 25.4472 13.5124 24.8534L13.9708 24.5947C12.0843 24.5947 10.6058 25.808 9.86621 27.1011Z" fill="white"/>
<path d="M22.3327 25.4988C21.545 25.5507 20.6785 25.7319 19.8121 25.5507C18.9456 25.3958 18.206 24.9041 17.3396 24.5178L14.5347 24.1035C15.4011 24.5689 16.1667 24.6718 17.0592 25.2921C19.6049 26.9979 20.9818 26.4551 22.3327 25.4988Z" fill="white"/>
<path d="M25.0863 22.916C23.8111 23.5099 22.817 23.9753 21.3898 24.0263C20.3185 24.0782 19.3245 23.9753 17.8208 24.3879C19.0953 24.518 20.9053 24.9563 22.1294 24.8014C22.7918 24.6984 23.3779 24.4143 23.9135 24.1557L25.0863 22.916Z" fill="white"/>
<path d="M21.8742 21.1069C21.5426 21.7008 21.2874 22.4248 20.9054 22.9157C20.1406 23.9231 19.0693 24.1314 17.9453 24.4395C18.6337 23.8975 19.3222 23.3284 20.0106 22.7864L21.8742 21.1069Z" fill="white"/>
<path d="M26.0583 16.4048C26.0071 18.0579 26.0583 18.4977 25.2423 19.8667L24.3499 20.6936C24.8311 18.8856 25.0099 18.0579 26.0583 16.4048Z" fill="white"/>
<path d="M26.3349 19.8667C25.5472 21.4424 25.596 21.6228 23.8631 22.5806L21.7979 22.9933C22.5367 22.5288 23.6843 21.9085 24.0671 21.6763C24.4232 21.4424 26.4633 19.8667 26.3349 19.8667Z" fill="white"/>
<path d="M23.7859 18.624C23.7072 20.8974 23.7347 20.871 22.2051 22.7061C22.6391 21.2103 23.1235 20.0217 23.7859 18.624Z" fill="white"/>
<path d="M17.6681 27.1011L16.8513 27.153C16.1889 25.99 15.246 25.4472 14.0472 24.8534L13.5627 24.5947C15.4492 24.5947 16.9285 25.808 17.6681 27.1011Z" fill="white"/>
<path d="M24.7556 10.9802V10.7471C24.7802 10.8539 24.8327 10.9521 24.9077 11.0312C25.0497 11.1297 25.2045 11.2079 25.3677 11.2635L25.3417 11.3154C25.1574 11.275 24.9835 11.1959 24.8313 11.0831C24.8061 11.0576 24.7808 11.0033 24.7525 10.9802H24.7556ZM24.7556 10.1269C24.7808 10.0239 24.8573 9.94646 24.9589 9.84269C25.0952 9.73517 25.2513 9.65621 25.4181 9.61041C25.6172 9.55678 25.8241 9.53922 26.0293 9.55852C26.1788 9.56195 26.3227 9.61685 26.4373 9.71417C26.5427 9.81323 26.6218 9.93758 26.6673 10.0758C26.6967 10.2304 26.6881 10.3899 26.6421 10.5403C26.5497 10.7077 26.4183 10.8497 26.2593 10.9538V11.0057L26.9729 10.7471L26.947 10.6952C26.903 10.7018 26.8582 10.6928 26.8201 10.6696C26.7941 10.6441 26.7689 10.6441 26.7689 10.5898V10.4861C26.8071 10.3336 26.8071 10.1739 26.7689 10.0215C26.6902 9.81475 26.6161 9.63435 26.4633 9.50504C26.3177 9.37106 26.1432 9.27347 25.9537 9.22008C25.7414 9.1906 25.5257 9.19952 25.3165 9.24642C25.0939 9.31273 24.8977 9.44848 24.7556 9.63435V10.1245V10.1269ZM24.7556 8.52563V8.06026L25.2141 7.46559L24.7556 7.49193V7.36262L25.7008 7.2828L25.7261 7.30914L24.758 8.52323L24.7556 8.52563ZM27.2022 13.3309L26.6925 13.4107V13.3556C26.7559 13.3388 26.8163 13.3118 26.8713 13.2758C26.9319 13.243 26.9775 13.1874 26.9982 13.121C27.0212 13.0547 27.03 12.9842 27.0241 12.9142L26.9982 12.6045L25.344 12.733C25.255 12.7444 25.1687 12.7714 25.0888 12.8129C25.0536 12.8758 25.0359 12.9473 25.0376 13.0196V13.0994H24.9872L24.9084 12.1687L24.9596 12.1432L24.9856 12.223C24.9856 12.3267 25.0108 12.4042 25.0873 12.4297C25.1125 12.4553 25.1889 12.4553 25.3173 12.4297L26.9714 12.3004L26.9454 12.0162C26.9437 11.9444 26.9264 11.8739 26.895 11.8095C26.8846 11.7796 26.8678 11.7523 26.8457 11.7298C26.8236 11.7073 26.7969 11.6901 26.7674 11.6794C26.6959 11.6446 26.6174 11.6271 26.5382 11.6283V11.5764L27.0478 11.5501L27.2022 13.3309ZM24.7556 7.36262V7.49193L24.2704 7.54382L24.6272 8.21512L24.7556 8.06026V8.52563L24.4744 8.86088C24.4048 8.94902 24.3449 9.04457 24.2956 9.14584C24.2879 9.22681 24.3059 9.30817 24.3468 9.37812L24.2681 9.40367L23.886 8.6286L23.9365 8.60305C23.9625 8.68288 24.0152 8.73157 24.0396 8.73157C24.0901 8.75791 24.1184 8.75791 24.1405 8.73157C24.2073 8.68916 24.2675 8.63698 24.3193 8.57671L24.5225 8.29334L24.1405 7.54382L23.7584 7.56936C23.6978 7.58285 23.6381 7.60018 23.5796 7.62124V7.44005H23.7584L24.7533 7.36023L24.7556 7.36262ZM24.7556 9.63675V10.1269C24.7296 10.1532 24.7296 10.2067 24.7037 10.2306C24.6748 10.3768 24.6837 10.528 24.7296 10.6696C24.7275 10.6841 24.7288 10.6988 24.7333 10.7127C24.7378 10.7265 24.7455 10.7391 24.7556 10.7495V10.9825C24.6579 10.8716 24.5877 10.7386 24.5508 10.5946C24.4991 10.4388 24.486 10.2725 24.5127 10.1103C24.5393 9.94815 24.6049 9.79511 24.7037 9.66469C24.7296 9.66469 24.7296 9.63914 24.7556 9.63914V9.63675ZM23.582 6.2515V6.0711L23.6608 6.15092C23.7112 6.25389 23.8128 6.28024 23.9404 6.30578C24.0015 6.3071 24.0622 6.2959 24.1189 6.27286C24.1756 6.24981 24.2272 6.2154 24.2704 6.17168C24.3426 6.12184 24.3963 6.04911 24.4232 5.96494C24.4671 5.88675 24.485 5.79639 24.4744 5.70711C24.4563 5.63135 24.4216 5.56069 24.3728 5.50038L24.22 5.34552L23.582 5.86197V5.45328L23.8372 5.24654C23.9388 5.16672 24.016 5.09169 24.016 5.0398C24.0077 4.97293 23.9803 4.90995 23.9372 4.85861L23.8868 4.80752L23.9372 4.75564L24.4492 5.37346C24.5534 5.49345 24.6315 5.63433 24.6784 5.78694C24.726 5.90135 24.7348 6.02848 24.7037 6.14853C24.6742 6.26684 24.6122 6.37425 24.5249 6.45824C24.4613 6.51022 24.3879 6.5485 24.3092 6.57073C24.2305 6.59297 24.1482 6.59869 24.0672 6.58755C23.894 6.54767 23.7403 6.44702 23.6332 6.30338C23.608 6.27784 23.608 6.2515 23.582 6.2515ZM23.582 4.28788V4.20806L23.6608 4.25915L23.6348 4.31103L23.582 4.28788ZM23.582 4.20806V4.25915C23.5032 4.20806 23.4292 4.17932 23.378 4.20806C23.3276 4.20806 23.2764 4.25914 23.1992 4.36291L22.9708 4.64708V4.13303V3.97817L23.1992 3.8752L23.582 4.21125V4.20806ZM23.582 5.44769V5.86117L23.5032 5.91226C23.5292 5.96414 23.5544 6.01603 23.582 6.06791V6.2515C23.5568 6.22596 23.5568 6.20041 23.5316 6.14853C23.5064 6.09665 23.4528 6.04476 23.4292 5.99367L22.9708 6.38081V5.96733L23.582 5.45328V5.44769ZM23.582 7.43686V7.61805C23.5316 7.64359 23.5316 7.66994 23.5032 7.69787C23.5107 7.77269 23.538 7.84409 23.582 7.90461L23.5316 7.93015L23.1992 7.33708L23.2504 7.31153C23.3016 7.36262 23.3528 7.41451 23.378 7.41451C23.4435 7.43715 23.513 7.44585 23.582 7.44005V7.43686ZM22.9708 3.97817V4.13303L21.1591 5.01107L21.1071 4.98473L21.6475 2.99636L20.7023 4.13303C20.6235 4.23679 20.5747 4.31422 20.5747 4.36611C20.5747 4.41799 20.6259 4.46908 20.6771 4.5465L20.7558 4.57284L20.7046 4.62393L20.373 4.34056V4.21125H20.4242C20.4907 4.1684 20.5507 4.11597 20.6022 4.0556L21.5199 2.94528C21.5626 2.89032 21.5971 2.82926 21.6223 2.76408C21.6475 2.7122 21.6223 2.68426 21.6223 2.63477C21.573 2.58789 21.5287 2.536 21.4899 2.47991L21.5151 2.45357L22.0003 2.84151L21.4899 4.67741L22.9692 3.97977L22.9708 3.97817ZM22.9708 4.15937L22.0256 5.27049C21.9468 5.37346 21.898 5.42534 21.8475 5.42534C21.8125 5.43336 21.7761 5.43283 21.7413 5.42381C21.7066 5.41479 21.6744 5.39753 21.6475 5.37346L21.5971 5.32157L21.5711 5.34792L22.2595 5.96733L22.3107 5.91545L22.2595 5.86436C22.2275 5.84707 22.201 5.82096 22.183 5.78904C22.165 5.75711 22.1563 5.72069 22.1579 5.68397C22.1764 5.60249 22.221 5.52951 22.2847 5.47643L22.9739 4.65027V4.15937H22.9708ZM22.9708 5.96733V6.38081H22.9448C22.8424 6.48458 22.7668 6.53567 22.7668 6.58755C22.7705 6.65562 22.7985 6.71999 22.8455 6.76875L22.8975 6.84857L22.8455 6.87411L22.2595 6.15092L22.3107 6.09904L22.3619 6.17886C22.3788 6.21145 22.4046 6.23849 22.4361 6.25686C22.4676 6.27523 22.5036 6.28416 22.5399 6.28263C22.5911 6.28263 22.6423 6.23075 22.7447 6.15332L22.9739 5.97212L22.9708 5.96733ZM20.3714 3.17756C20.4113 3.12068 20.4456 3.05999 20.4738 2.99636C20.5487 2.86914 20.5946 2.7266 20.6082 2.57913C20.6218 2.43165 20.6028 2.28296 20.5526 2.14386C20.5256 2.00194 20.4645 1.86896 20.3746 1.75673L20.3714 3.17756ZM20.3714 1.75673V3.17756C20.3269 3.24296 20.2757 3.30343 20.2186 3.35796V2.65951C20.3202 2.40169 20.3462 2.19495 20.2974 2.01375C20.2946 1.93811 20.2669 1.8656 20.2186 1.80781V1.62742C20.2757 1.66248 20.3272 1.70608 20.3714 1.75673ZM20.3714 4.21125V4.34056L20.2186 4.21125V4.13143C20.2373 4.15424 20.2604 4.17305 20.2863 4.18675C20.3123 4.20046 20.3407 4.20878 20.3699 4.21125H20.3714ZM20.2186 1.62742V1.80861C20.1577 1.71402 20.0686 1.6416 19.9642 1.60187C19.8997 1.56262 19.8278 1.5377 19.7531 1.52876C19.6784 1.51981 19.6027 1.52705 19.531 1.54999V1.39513C19.707 1.37634 19.8845 1.41225 20.0398 1.49811C20.1037 1.53483 20.1636 1.57817 20.2186 1.62742ZM20.2186 2.66031V3.35796C20.0962 3.46543 19.958 3.55295 19.809 3.61738C19.7179 3.64468 19.6242 3.66207 19.5294 3.66926V3.48727C19.5436 3.48946 19.5581 3.48829 19.5718 3.48386C19.5854 3.47943 19.5979 3.47185 19.6082 3.46172C19.787 3.3819 19.9658 3.17756 20.1186 2.86785C20.1621 2.80396 20.1963 2.73407 20.2202 2.66031H20.2186ZM20.2186 4.13303V4.21285L20.117 4.13303L20.1674 4.08194L20.2186 4.13303ZM19.531 1.39513V1.54999C19.505 1.54999 19.479 1.57553 19.4522 1.57553C19.2044 1.71605 19.0075 1.93344 18.8906 2.19575C18.737 2.50546 18.6866 2.78962 18.737 3.04825C18.7487 3.13553 18.784 3.21785 18.8389 3.28615C18.8937 3.35445 18.9662 3.40609 19.0481 3.43538C19.2009 3.53915 19.3545 3.53915 19.5333 3.48727V3.66846C19.3495 3.67416 19.1666 3.63873 18.9977 3.56469C18.7421 3.42951 18.5496 3.19738 18.4621 2.91894C18.3829 2.61522 18.4192 2.29245 18.5637 2.01455C18.6364 1.87147 18.7372 1.74498 18.8599 1.64285C18.9827 1.54072 19.1247 1.46511 19.2774 1.42068C19.3608 1.39822 19.4472 1.38959 19.5333 1.39513H19.531ZM11.7031 1.6793V1.54999L12.0607 1.49811L11.7015 0.903432V0.361441L12.6467 1.83416C12.6962 1.93358 12.7657 2.0214 12.8507 2.09198C12.9211 2.12981 13.003 2.13922 13.0799 2.11832V2.19814L12.2395 2.353L12.2135 2.27318C12.2787 2.26195 12.3401 2.23452 12.3923 2.19335C12.4021 2.18282 12.4095 2.17018 12.4139 2.15636C12.4182 2.14254 12.4195 2.1279 12.4175 2.11353C12.3959 2.03078 12.3613 1.95208 12.3151 1.88045L12.1371 1.59708L11.7031 1.67691V1.6793ZM15.0184 1.65296L15.0688 1.6793L14.8648 2.27318L13.1823 2.22129V2.16941H13.2839C13.318 2.17278 13.3523 2.16721 13.3836 2.15323C13.415 2.13925 13.4422 2.11733 13.4627 2.08959C13.4998 2.009 13.5173 1.92061 13.5139 1.83176L13.5344 0.413325C13.5383 0.324187 13.5207 0.235435 13.4832 0.154702C13.4629 0.126906 13.4358 0.104935 13.4046 0.0909414C13.3734 0.076948 13.3391 0.0714134 13.3052 0.0748802H13.2264V0.0253906L14.1945 0.0509336V0.105213C14.1172 0.0978656 14.0392 0.106557 13.9653 0.130756C13.927 0.151126 13.8926 0.178144 13.8637 0.210577C13.8376 0.293787 13.8287 0.381564 13.8377 0.468402L13.818 1.86129C13.818 1.94112 13.818 2.01615 13.8432 2.04249C13.8432 2.06803 13.8692 2.06803 13.8944 2.09358C13.9785 2.10984 14.0639 2.11865 14.1496 2.11992H14.3024C14.422 2.12882 14.5422 2.11995 14.6592 2.09358C14.7283 2.06588 14.7897 2.02149 14.838 1.96426C14.9174 1.87412 14.9781 1.76882 15.0168 1.65456L15.0184 1.65296ZM18.3321 0.695096L18.1817 1.44622L18.1305 1.42068C18.1419 1.22741 18.088 1.03596 17.9777 0.877889C17.8989 0.748577 17.7737 0.67115 17.5949 0.619266C17.46 0.593731 17.3217 0.593731 17.1869 0.619266C17.0399 0.672883 16.9136 0.772385 16.8261 0.903432C16.7245 1.03274 16.6481 1.23948 16.5709 1.47256C16.5253 1.64078 16.5169 1.81714 16.5465 1.98901C16.549 2.06235 16.566 2.13443 16.5966 2.20095C16.6272 2.26747 16.6707 2.32705 16.7245 2.37615C16.8181 2.50047 16.955 2.58386 17.1073 2.60923C17.2296 2.65448 17.3622 2.66334 17.4893 2.63477C17.6512 2.56766 17.8043 2.48082 17.9454 2.37615L17.9714 2.40249C17.8483 2.56186 17.6801 2.67938 17.4893 2.73934C17.3365 2.79042 17.1577 2.76488 16.9537 2.71299C16.6221 2.63317 16.3677 2.42883 16.2653 2.11912C16.1721 1.88066 16.1542 1.61879 16.2141 1.36959C16.2928 1.16285 16.3677 0.956114 16.5205 0.80126C16.6564 0.667903 16.8224 0.570333 17.0041 0.517094C17.1922 0.43958 17.4028 0.43958 17.5909 0.517094C17.7558 0.54617 17.9074 0.62717 18.0242 0.748577C18.0502 0.77412 18.0754 0.800461 18.1029 0.800461H18.1817C18.2329 0.77412 18.2605 0.72064 18.2833 0.697491L18.3321 0.695096ZM11.7015 0.361441V0.903432L11.5487 0.67115L11.3195 1.62901L11.7015 1.54919V1.6785L11.2943 1.75832L11.2155 2.11992C11.1969 2.18717 11.1881 2.25682 11.1895 2.32666C11.1895 2.3522 11.2155 2.37774 11.2683 2.40648C11.2935 2.43202 11.3699 2.43202 11.4723 2.40648V2.4863L10.8098 2.57969L10.7846 2.52861C10.8862 2.50226 10.9374 2.47672 10.9626 2.42484C11.0166 2.31844 11.0601 2.20696 11.0926 2.09198L11.5235 0.185034L11.5739 0.158693L11.7015 0.365432V0.361441ZM9.12342 3.22944V2.57969L9.28096 2.99636C9.40274 2.98512 9.52263 2.9583 9.63777 2.91654C9.79131 2.86423 9.92506 2.76495 10.0206 2.63237C10.071 2.50306 10.0994 2.37375 10.0458 2.27078C10.0189 2.18661 9.96512 2.11388 9.89298 2.06404C9.85666 2.02689 9.81269 1.99833 9.76422 1.98039C9.71575 1.96246 9.66396 1.95559 9.61257 1.96027C9.48189 1.96647 9.35298 1.99341 9.23055 2.0401C9.20455 2.06564 9.15178 2.06564 9.12736 2.09118V1.96267C9.13782 1.95278 9.1503 1.94537 9.16392 1.94095C9.17754 1.93654 9.19195 1.93523 9.20613 1.93713C9.31542 1.89095 9.41819 1.83029 9.51175 1.75673C9.57728 1.70547 9.62254 1.63213 9.63935 1.54999C9.64348 1.463 9.63499 1.37586 9.61414 1.29137C9.59189 1.23607 9.55736 1.1867 9.51324 1.14711C9.46912 1.10752 9.41659 1.07877 9.35972 1.06308C9.28801 1.02887 9.20716 1.01961 9.12972 1.03673V0.877889C9.18171 0.877889 9.23291 0.852346 9.28332 0.852346C9.42414 0.825403 9.5698 0.853953 9.69055 0.932168C9.74612 0.954136 9.79585 0.988961 9.83579 1.03386C9.87572 1.07877 9.90475 1.1325 9.92055 1.19079C9.96685 1.28718 9.97611 1.39757 9.94654 1.5005C9.91136 1.61567 9.8393 1.71566 9.74175 1.78467C9.86158 1.77707 9.98187 1.78593 10.0994 1.81101C10.2147 1.86048 10.3089 1.95005 10.3649 2.06359C10.4209 2.17714 10.4351 2.30721 10.405 2.43042C10.3759 2.55579 10.3021 2.66583 10.1978 2.73934C10.119 2.84231 9.94339 2.91973 9.71339 2.99716L9.12342 3.22944ZM9.12342 0.877889V1.03274C9.03719 1.04011 8.95209 1.05752 8.86979 1.08463C8.78219 1.1224 8.69696 1.16559 8.61458 1.21394L8.9202 2.01216C8.9622 2.00109 9.00481 1.99256 9.0478 1.98662C9.07301 1.98662 9.09822 1.96027 9.12657 1.96027V2.08959C9.10137 2.08959 9.07616 2.08959 9.07616 2.11593C9.05644 2.11633 9.03705 2.12111 9.01936 2.12994C9.00166 2.13876 8.9861 2.15142 8.97376 2.16701L9.12342 2.57969V3.22625L8.76739 3.38031L8.7414 3.32922L8.82017 3.30288C8.8834 3.26579 8.93605 3.21271 8.97297 3.14882C8.97443 3.05997 8.95725 2.97182 8.92256 2.8902L8.41451 1.57553C8.38533 1.49147 8.34247 1.41296 8.2877 1.34325C8.25957 1.3305 8.22911 1.32391 8.1983 1.32391C8.16748 1.32391 8.13702 1.3305 8.10889 1.34325V1.26343L8.87294 0.983254C8.9526 0.93748 9.03788 0.902587 9.12657 0.879485L9.12342 0.877889ZM8.10732 3.77143C8.16047 3.67303 8.20324 3.56922 8.23492 3.46172C8.28065 3.19618 8.23564 2.92277 8.10732 2.68665V3.77143ZM8.10732 1.26582V1.34565H8.08211L8.00335 1.37119L7.97814 1.34565V1.3201L8.10574 1.26822L8.10732 1.26582ZM8.10732 2.68665V3.77143C8.07364 3.83776 8.03066 3.89879 7.97972 3.95263V3.59104C8.00492 3.59104 8.00492 3.59104 8.00492 3.56469C8.00757 3.49485 7.99906 3.42504 7.97972 3.35796V2.47991C8.00492 2.50546 8.03091 2.55974 8.05848 2.58288C8.08474 2.61168 8.10176 2.64786 8.10732 2.68665ZM7.97972 2.47991V3.35796C7.93719 3.16949 7.8685 2.98808 7.77571 2.81916C7.57249 2.48311 7.36848 2.30191 7.13848 2.22448C7.05056 2.18674 6.95409 2.17422 6.85962 2.1883C6.76516 2.20238 6.67633 2.24251 6.60286 2.30431C6.53721 2.32554 6.48237 2.37195 6.45005 2.43362V2.27318C6.48037 2.22549 6.52515 2.18907 6.57765 2.16941C6.80765 2.01455 7.06207 1.98901 7.36533 2.04089C7.61067 2.11616 7.82521 2.27025 7.97656 2.47991H7.97972ZM7.97972 3.59104C7.97004 3.68474 7.93984 3.77507 7.89133 3.85544C7.84282 3.93581 7.77721 4.00419 7.6993 4.0556C7.62339 4.10181 7.53833 4.13043 7.45022 4.1394C7.36212 4.14837 7.27314 4.13747 7.18968 4.10748C6.96046 4.02766 6.73046 3.82332 6.55245 3.51281C6.50344 3.45255 6.46844 3.3819 6.45005 3.30607V3.97817C6.57767 4.12777 6.74628 4.23557 6.93447 4.28788C7.24009 4.34056 7.49529 4.31422 7.7505 4.13303C7.84143 4.09472 7.92058 4.03243 7.97972 3.95263V3.59104ZM6.45005 5.06375V4.70136L6.55245 4.95998L6.45005 5.06375ZM6.45005 2.26998V2.42803C6.3818 2.51895 6.33785 2.62617 6.32244 2.73934C6.29724 2.89419 6.34765 3.10093 6.45005 3.30687V3.97897L6.29724 3.82412V2.40249C6.34147 2.35184 6.39298 2.30824 6.45005 2.27318V2.26998ZM6.45005 4.69817V5.06056L6.29724 5.18907V4.9081C6.31779 4.85928 6.32644 4.80616 6.32244 4.75324C6.32413 4.70873 6.3155 4.66445 6.29724 4.62393V4.4156L6.45005 4.69817ZM6.29724 2.39929V3.82012C6.29724 3.79378 6.27203 3.76824 6.24683 3.71715C6.15962 3.58595 6.10054 3.43767 6.07341 3.28189C6.04627 3.12612 6.05169 2.9663 6.08929 2.81277C6.13636 2.66532 6.20514 2.52592 6.2933 2.39929H6.29724ZM6.29724 4.4148V4.62074C6.28949 4.5504 6.27253 4.48141 6.24683 4.4156L6.29724 4.38925V4.4156V4.4148ZM6.29724 4.9049C6.29934 4.91928 6.29816 4.93395 6.29379 4.94778C6.28942 4.96162 6.28198 4.97426 6.27203 4.98473C6.21258 5.08494 6.13478 5.17272 6.04282 5.24335L5.94042 5.34712C5.83881 5.45328 5.76162 5.50277 5.73641 5.52831H5.65765C5.60434 5.48817 5.55332 5.445 5.50484 5.399L4.58877 4.39165C4.48716 4.28788 4.43596 4.23679 4.43596 4.18491V4.70136L5.3024 5.63128C5.35859 5.6805 5.40235 5.74263 5.43001 5.81248C5.43123 5.88914 5.40298 5.96328 5.35124 6.01922L5.27247 6.0711L5.32288 6.12299L6.29173 5.19226V4.9081L6.29724 4.9049ZM4.43596 7.41451V7.20936C4.51535 7.16356 4.58475 7.10192 4.63997 7.02817C4.68599 6.9618 4.72858 6.89306 4.76757 6.82223C4.79683 6.74781 4.81412 6.66912 4.81877 6.58915L4.43596 6.30498V5.89071C4.46117 5.91545 4.46117 5.94179 4.48716 5.94179L5.02199 6.33132C5.01309 6.46364 4.9866 6.59413 4.94322 6.71926C4.8906 6.84805 4.82205 6.96955 4.73922 7.08085C4.64365 7.19884 4.54134 7.31105 4.43281 7.4169L4.43596 7.41451ZM4.43596 4.08194V3.95263L4.56356 3.82332L4.58877 3.8752C4.52958 3.92762 4.47812 3.98837 4.43596 4.0556V4.08194ZM1.75786 11.4966L1.91067 11.5221C2.07623 11.533 2.23938 11.5679 2.39509 11.6259C2.52512 11.6839 2.63258 11.7838 2.70071 11.9101C2.77948 12.0386 2.80311 12.2198 2.77948 12.4521C2.75585 12.6843 2.70071 12.8655 2.60146 12.9949C2.5083 13.1069 2.38394 13.1879 2.24465 13.2271C2.08428 13.2542 1.9206 13.2542 1.76023 13.2271V12.9174H2.14225C2.22963 12.9151 2.31596 12.8976 2.39746 12.8655C2.44865 12.8137 2.52506 12.7626 2.55026 12.6843C2.60386 12.6077 2.63893 12.5194 2.65266 12.4265C2.65372 12.2848 2.62695 12.1442 2.57389 12.013C2.52742 11.9117 2.45775 11.823 2.37067 11.7544C2.21224 11.7068 2.05023 11.6723 1.88625 11.6515H1.75944V11.4966H1.75786ZM4.43596 3.95263V4.18491V4.70136L4.33435 4.57524C4.23274 4.46908 4.18154 4.4156 4.13034 4.4156C4.09672 4.41496 4.06337 4.42177 4.03262 4.43556C4.00187 4.44934 3.97447 4.46977 3.95233 4.49542L3.87356 4.5473L3.84993 4.49542L4.43596 3.95343V3.95263ZM4.43596 5.89071V6.30338L4.30836 6.20041C4.25094 6.16255 4.19151 6.12791 4.13034 6.09665C4.08618 6.0926 4.04182 6.10176 4.00274 6.12299C3.97753 6.12299 3.92397 6.17407 3.87514 6.2515L3.82394 6.20041L4.33435 5.52831L4.38476 5.55465L4.36034 5.5802C4.30836 5.66002 4.28158 5.70951 4.30836 5.78694C4.34589 5.8274 4.38885 5.86233 4.43596 5.89071ZM4.43596 7.20777C4.39736 7.24035 4.3544 7.26722 4.30836 7.28759C4.15145 7.33645 3.9851 7.34549 3.82394 7.31393C3.64592 7.28759 3.46791 7.18382 3.2891 7.08085C3.10335 6.93825 2.95466 6.75195 2.85588 6.53806C2.81244 6.41666 2.801 6.28588 2.82269 6.15864C2.84437 6.03139 2.89844 5.91208 2.97955 5.81248C3.02683 5.73326 3.08982 5.66483 3.16452 5.61153C3.23922 5.55822 3.32402 5.52119 3.41356 5.50277C3.5598 5.49582 3.70617 5.51335 3.84678 5.55465L3.89719 5.52831L3.31116 5.14038L3.25996 5.19226C3.31116 5.24415 3.33873 5.27209 3.33873 5.29603V5.34792C3.30942 5.38034 3.27477 5.40735 3.23633 5.42774C3.15658 5.48337 3.08005 5.54361 3.00712 5.60814L2.85431 5.76778C2.73206 5.92239 2.66071 6.11194 2.6503 6.30977C2.61528 6.54191 2.66005 6.7792 2.77712 6.98187C2.85422 7.15774 2.97906 7.30778 3.13708 7.41451C3.34153 7.57113 3.59627 7.64485 3.85151 7.62124C4.06331 7.61578 4.26817 7.54351 4.43754 7.41451V7.20936L4.43596 7.20777ZM1.75786 10.4374V10.2817L2.6503 10.5667C2.77711 10.6178 2.85431 10.6465 2.87951 10.6178C2.95828 10.5922 2.98112 10.5379 3.00712 10.4629L3.03311 10.3831L3.11188 10.4086L2.85746 11.1318L2.80626 11.1063L2.83225 11.0264C2.84759 10.993 2.85329 10.9559 2.8487 10.9193C2.8441 10.8827 2.82939 10.8482 2.80626 10.8197C2.74616 10.7713 2.67578 10.7377 2.60068 10.7215L1.75944 10.4374H1.75786ZM1.75786 9.99754V9.66229L2.93071 9.22247L1.75786 8.80979V8.68048H1.78307L3.51596 9.27436L3.48996 9.32624L1.75786 9.99754ZM0.637787 11.8837L0.586588 11.8582L0.665355 11.0831H0.716554V11.1869C0.709777 11.2252 0.713541 11.2647 0.727434 11.3011C0.741327 11.3374 0.764813 11.3691 0.795322 11.3928C0.869449 11.4192 0.946385 11.4366 1.02454 11.4447L1.76416 11.4966V11.6515L0.99933 11.5716C0.913431 11.5628 0.826665 11.5715 0.744123 11.5972C0.718758 11.6197 0.698565 11.6476 0.684959 11.6789C0.671353 11.7102 0.664662 11.7442 0.665355 11.7784L0.64015 11.8813L0.637787 11.8837ZM1.75944 13.2271H1.70824L0.867001 13.1473C0.773153 13.1255 0.67488 13.1347 0.586588 13.1737C0.555599 13.2316 0.529259 13.2919 0.50782 13.3541V13.4339H0.458984L0.537752 12.476H0.588951V12.579C0.585776 12.6135 0.591345 12.6482 0.605129 12.6799C0.618913 12.7116 0.640456 12.7393 0.667719 12.7602C0.692924 12.8113 0.770116 12.8113 0.896932 12.84L1.76338 12.9198V13.2295L1.75944 13.2271ZM1.75944 8.67729V8.8066H1.73423C1.60663 8.75471 1.53022 8.75471 1.47902 8.78026C1.42783 8.78026 1.37663 8.83214 1.35142 8.93511L1.32622 8.987H1.27502L1.53022 8.26381H1.58064L1.55543 8.34363C1.54014 8.3814 1.53444 8.42245 1.53884 8.46303C1.54325 8.5036 1.55761 8.54242 1.58064 8.57591C1.63564 8.61807 1.69572 8.65294 1.75944 8.67968V8.67729ZM1.75944 9.6591V9.99435L1.37663 10.1237L1.75944 10.2785V10.4342L1.17341 10.2011L0.968611 10.3049L0.867001 10.4078C0.835218 10.4433 0.817052 10.4892 0.815802 10.5371H0.737034L0.941042 9.96881L1.75944 9.6591Z" fill="white"/>
<path d="M37.1448 21.701V15.6816H36.6856V20.9004L33.2443 15.6816H32.811V21.701H33.2443V16.4831L36.6856 21.701H37.1448Z" fill="white"/>
<path d="M41.3259 19.7636V19.5569C41.3259 18.3428 40.7399 17.5933 39.7198 17.5933V17.9852C39.9405 17.9776 40.1582 18.0377 40.3447 18.1574C40.5311 18.2772 40.6776 18.4511 40.7651 18.6565C40.8675 18.9151 40.8927 19.0181 40.9187 19.406H39.7198V19.7676L41.3259 19.7636ZM39.7198 21.7528H39.8215C40.4847 21.7528 40.8675 21.546 41.2755 21.1334L40.9691 20.8739C40.6115 21.21 40.3319 21.3656 39.8474 21.3656H39.7198V21.7528ZM39.7198 17.5933C38.6998 17.5933 38.1138 18.3683 38.1138 19.6599C38.1138 20.9777 38.6746 21.7009 39.7198 21.7528V21.3656C38.955 21.3138 38.547 20.7454 38.547 19.7636H39.7198V19.402H38.547C38.547 19.0141 38.5722 18.9111 38.6746 18.6525C38.7682 18.4521 38.9162 18.2829 39.1014 18.1647C39.2865 18.0465 39.501 17.9842 39.7198 17.9852V17.5933Z" fill="white"/>
<path d="M43.6236 21.7012V21.3141H43.34C42.9068 21.3141 42.7028 21.081 42.7028 20.6428V17.9552H43.6236V17.6455H42.7028V16.3276H42.2948V17.6455H41.7332V17.9552H42.2948V20.6428C42.2948 21.2622 42.6264 21.7012 43.2636 21.7012H43.6236Z" fill="white"/>
<path d="M50.326 17.6455H49.8408L48.8215 21.2104L47.6747 17.6455H47.2407L46.0938 21.2104L45.0738 17.6455H44.5894L45.8898 21.7013H46.323L47.4707 18.3168L48.5923 21.7013H49.0256L50.326 17.6455Z" fill="white"/>
<path d="M53.69 19.6617C53.69 19.0678 53.6113 18.474 53.1804 18.0341C53.0322 17.8883 52.8565 17.7742 52.6637 17.6988C52.471 17.6233 52.2653 17.5881 52.0588 17.5951V17.9854C52.2143 17.9799 52.3693 18.0068 52.5141 18.0645C52.659 18.1221 52.7906 18.2093 52.9008 18.3207C53.2316 18.6567 53.2576 19.1987 53.2576 19.6641C53.2576 20.1295 53.2316 20.7018 52.9008 21.0338C52.7906 21.1453 52.659 21.2327 52.5142 21.2905C52.3694 21.3483 52.2143 21.3753 52.0588 21.3699V21.757C52.2653 21.7641 52.471 21.7288 52.6637 21.6534C52.8565 21.5779 53.0322 21.4639 53.1804 21.318C53.6144 20.8742 53.69 20.2548 53.69 19.6617ZM52.0588 17.5951C51.6424 17.5861 51.2394 17.7439 50.9371 18.0341C50.5039 18.474 50.4275 19.0678 50.4275 19.6617C50.4275 20.2556 50.5063 20.8758 50.9371 21.3156C51.2394 21.6059 51.6424 21.7636 52.0588 21.7546V21.3675C51.9034 21.373 51.7486 21.346 51.604 21.2881C51.4594 21.2303 51.3281 21.1429 51.2183 21.0315C50.8859 20.6954 50.8607 20.1271 50.8607 19.6617C50.8607 19.1963 50.8859 18.6544 51.2183 18.3183C51.3282 18.2069 51.4595 18.1197 51.6041 18.062C51.7487 18.0043 51.9035 17.9774 52.0588 17.9831V17.5951Z" fill="white"/>
<path d="M56.8007 18.2909L57.1323 17.9851C57.0023 17.8541 56.8468 17.7519 56.6756 17.6851C56.5045 17.6183 56.3215 17.5884 56.1383 17.5972C55.6791 17.5972 55.1931 17.8039 54.9654 18.1919V17.6491H54.5322V21.7048H54.9662V19.1952C54.9662 18.5495 55.349 17.9812 56.0375 17.9812C56.3927 17.9851 56.5715 18.0578 56.8007 18.2909Z" fill="white"/>
<path d="M60.7013 21.701L59.07 19.1435L60.3957 17.6453H59.86L57.8467 19.9186V15.6816H57.4387V21.701H57.8467V20.5388L58.7896 19.4532L60.1664 21.701H60.7013Z" fill="white"/>
<path d="M67.175 19.7414V15.6816H66.7182V19.6863C66.7182 20.6937 66.0809 21.3402 65.1121 21.3402C64.1669 21.3402 63.5312 20.6937 63.5312 19.6863V15.6816H63.072V19.7414C63.072 20.9299 63.9133 21.7569 65.1121 21.7569C66.3109 21.7569 67.175 20.9259 67.175 19.7414Z" fill="white"/>
<path d="M71.5365 21.701L69.9304 19.1435L71.2561 17.6453H70.6952L68.7071 19.9186V15.6816H68.2739V21.701H68.7071V20.5388L69.6248 19.4532L71.0269 21.701H71.5365Z" fill="white"/>
<path d="M74.417 18.2909L74.7234 17.9812C74.4429 17.6962 74.1617 17.5933 73.7545 17.5933C73.2953 17.5933 72.8093 17.8 72.5817 18.1879V17.6451H72.1484V21.7009H72.5817V19.1953C72.5817 18.5495 72.9645 17.9812 73.6529 17.9812C74.0089 17.9852 74.1854 18.0578 74.417 18.2909Z" fill="white"/>
<path d="M77.7567 21.701V18.9072C77.7567 18.0803 77.2731 17.5894 76.2018 17.5894H76.1766V17.9853H76.2018C77.0171 17.9853 77.3235 18.3205 77.3235 18.9431V19.4085H76.1766V19.7701H77.3235V20.2865C77.3235 20.6489 77.2447 20.9323 77.0943 21.0616C76.8391 21.3202 76.5335 21.3721 76.1766 21.3721V21.7593C76.7123 21.7593 76.9919 21.6299 77.3235 21.2939V21.7074L77.7567 21.701ZM76.1766 17.5933C75.5394 17.5933 75.1054 17.7482 74.7746 18.2136L75.0802 18.4977C75.3354 18.1098 75.6158 17.9813 76.1766 17.9813V17.5933ZM76.1766 19.4021H76.0238C75.1574 19.4021 74.621 19.8411 74.621 20.5899C74.6168 20.8816 74.7166 21.165 74.9022 21.3881C75.1818 21.6459 75.4882 21.7497 76.0994 21.7497H76.1782V21.3625H76.0994C75.3606 21.3625 75.055 21.1303 75.055 20.5867C75.055 20.0183 75.3858 19.7605 76.0742 19.7605H76.1766V19.4021Z" fill="white"/>
<path d="M79.2352 21.701V17.6453H78.802V21.701H79.2352ZM79.2864 16.2244V15.6816H78.7539V16.2244H79.2864Z" fill="white"/>
<path d="M83.4422 21.7008V19.0914C83.4484 18.8867 83.4129 18.6828 83.3382 18.4925C83.2634 18.3022 83.1508 18.1295 83.0074 17.9851C82.7522 17.7265 82.3954 17.5972 81.937 17.5972C81.4526 17.5972 81.0446 17.7776 80.7634 18.14V17.6491H80.3293V21.7048H80.7626V19.1689C80.7626 18.4201 81.1714 17.9811 81.885 17.9811C82.6238 17.9811 83.0066 18.3938 83.0066 19.1689V21.7008H83.4422Z" fill="white"/>
<path d="M87.4703 19.7636V19.5569C87.4703 18.3428 86.8583 17.5933 85.8642 17.5933V17.9852C86.0842 17.9813 86.3004 18.0428 86.4862 18.1621C86.6719 18.2814 86.8191 18.4533 86.9095 18.6565C87.0119 18.9151 87.0119 19.0181 87.0371 19.406H85.8642V19.7676L87.4703 19.7636ZM85.8642 21.7528H85.943C86.6314 21.7528 87.0142 21.546 87.4215 21.1334L87.0899 20.8739C86.7582 21.21 86.4534 21.3656 85.9682 21.3656H85.8666L85.8642 21.7528ZM85.8642 17.5933C84.8403 17.5933 84.2322 18.3683 84.2322 19.6599C84.2322 20.9777 84.7938 21.7009 85.8642 21.7528V21.3656C85.0766 21.3138 84.6654 20.7454 84.6654 19.7636H85.8642V19.402H84.6654C84.6914 19.0141 84.6914 18.9111 84.8229 18.6525C84.9109 18.4475 85.0575 18.2739 85.2439 18.1543C85.4302 18.0346 85.6477 17.9743 85.8682 17.9812L85.8642 17.5933Z" fill="white"/>
<path d="M35.0546 9.97204H36.329V10.2818C36.329 11.0576 35.7682 11.5741 35.0546 11.5741C34.8745 11.578 34.6958 11.5405 34.5321 11.4643C34.3683 11.3881 34.2238 11.2753 34.1094 11.1342C33.8565 10.8245 33.7778 10.6417 33.7778 9.40371C33.7778 8.13773 33.8565 7.95734 34.1086 7.64763C34.2232 7.50683 34.3677 7.39419 34.5314 7.31815C34.6952 7.24211 34.8737 7.20466 35.0538 7.20861C35.3186 7.2114 35.576 7.29734 35.7906 7.4546C36.0051 7.61186 36.1663 7.83268 36.2518 8.08665H37.2207C37.1311 7.57318 36.8636 7.10896 36.4664 6.77752C36.0692 6.44609 35.5683 6.2692 35.0538 6.27868C34.6628 6.27398 34.2776 6.37424 33.9373 6.56925C33.597 6.76427 33.3136 7.0471 33.1161 7.38901C32.9129 7.7506 32.8357 7.93179 32.8357 9.40451C32.8357 10.8772 32.9145 11.0584 33.1161 11.42C33.3195 11.7547 33.6048 12.0304 33.9443 12.2204C34.2838 12.4105 34.666 12.5084 35.0538 12.5048C36.303 12.5048 37.2719 11.5469 37.2719 10.3344V9.094H35.0546V9.97204Z" fill="white"/>
<path d="M38.2927 11.3931C38.2927 12.1913 38.7764 12.4523 39.4144 12.4523H39.7964V11.6261H39.516C39.2868 11.6261 39.1844 11.5224 39.1844 11.3412V6.33154H38.2927V11.3931Z" fill="white"/>
<path d="M42.142 12.5041C42.8304 12.5041 43.2376 12.22 43.4676 11.9613C43.8245 11.5742 43.9521 11.2118 43.9521 10.2851C43.9521 9.32721 43.8245 8.96801 43.4676 8.60881C43.2376 8.35019 42.8304 8.04048 42.142 8.04048V8.91852C42.2777 8.91966 42.4116 8.95025 42.5347 9.00821C42.6578 9.06618 42.7672 9.15018 42.8556 9.25457C43.0084 9.48685 43.0596 9.64251 43.0596 10.2875C43.0596 10.9077 43.0084 11.0857 42.8556 11.3212C42.7656 11.4218 42.6553 11.5016 42.5322 11.5552C42.409 11.6088 42.276 11.6349 42.142 11.6317V12.5041ZM40.3059 10.2819C40.3059 11.2118 40.4595 11.5742 40.7911 11.9581C41.0455 12.2168 41.4536 12.5009 42.142 12.5009V11.6229C41.8364 11.6229 41.5552 11.4936 41.4283 11.3124C41.2495 11.0801 41.1983 10.8989 41.1983 10.2787C41.1983 9.63373 41.2495 9.48047 41.4283 9.24579C41.5148 9.13913 41.6239 9.05354 41.7474 8.99537C41.8709 8.9372 42.0058 8.90793 42.142 8.90974V8.0317C41.8894 8.02604 41.6385 8.07396 41.4053 8.17239C41.1722 8.27081 40.9619 8.41756 40.788 8.60322C40.4595 8.96562 40.3059 9.32641 40.3059 10.2819Z" fill="white"/>
<path d="M46.6547 12.4778C46.7379 12.5003 46.8241 12.5089 46.91 12.5034C47.4448 12.5034 47.8552 12.2711 48.0828 11.935C48.3372 11.6253 48.4136 11.3404 48.4136 10.2811C48.4136 9.19635 48.3349 8.91218 48.0828 8.60487C47.9444 8.42427 47.7663 8.27888 47.5627 8.18022C47.3591 8.08156 47.1356 8.03237 46.91 8.03654C46.8076 8.03654 46.7311 8.06208 46.6547 8.06208V8.91458C47.4708 8.91458 47.5212 9.61222 47.5212 10.2835C47.5212 10.9548 47.4708 11.6277 46.6547 11.6277V12.4778ZM44.8699 12.4515H45.7623V12.0125C46.0022 12.2615 46.3154 12.4248 46.6547 12.4778V11.6261H46.6288C45.8127 11.6261 45.7623 10.9021 45.7623 10.2819C45.7623 9.63697 45.8127 8.91298 46.6288 8.91298H46.6547V8.06049C46.3231 8.14031 46.0427 8.31911 45.7623 8.55139V6.33154H44.8699V12.4515Z" fill="white"/>
<path d="M51.7028 12.452H52.5945V9.48104C52.5945 8.4218 51.8808 8.06021 50.8096 8.03467V8.86083C51.4468 8.86083 51.7028 9.02047 51.7028 9.42996V9.89452H50.8096V10.6177H51.7028V10.9282C51.7028 11.574 51.4728 11.6769 50.8096 11.6769V12.5039C51.2688 12.4784 51.524 12.3443 51.7028 12.0649V12.452ZM50.8096 8.03467H50.7584C50.096 8.03467 49.6115 8.21507 49.2799 8.68043L49.9683 9.19688C50.1212 8.96459 50.3512 8.86083 50.8096 8.86083V8.03467ZM50.8096 9.89452H50.4764C49.5312 9.89452 49.0483 10.4884 49.0483 11.1868C49.0483 11.9356 49.6344 12.5039 50.604 12.5039H50.8072V11.6793H50.7285C50.1164 11.6793 49.888 11.4215 49.888 11.1365C49.888 10.8268 50.1164 10.6201 50.6521 10.6201H50.8049L50.8096 9.89452Z" fill="white"/>
<path d="M53.7422 11.3931C53.7422 12.1913 54.2266 12.4523 54.889 12.4523H55.2711V11.6261H54.9662C54.7622 11.6261 54.6346 11.5224 54.6346 11.3412V6.33154H53.7422V11.3931Z" fill="white"/>
<path d="M61.3393 10.7469C61.0841 11.2897 60.6761 11.5739 60.1664 11.5739C59.9834 11.5747 59.8022 11.5359 59.6351 11.4601C59.468 11.3842 59.3189 11.2731 59.1976 11.1341C58.9684 10.8244 58.892 10.644 58.892 9.40353C58.892 8.13755 58.9707 7.95715 59.1976 7.64745C59.3189 7.50906 59.4679 7.39842 59.6347 7.32286C59.8015 7.24731 59.9822 7.20857 60.1649 7.20922C60.4275 7.20862 60.6833 7.29366 60.8945 7.45179C61.1057 7.60991 61.2611 7.83272 61.3377 8.08726H62.3318C62.2425 7.5735 61.9752 7.1089 61.5779 6.77715C61.1807 6.44539 60.6796 6.26828 60.1649 6.2777C59.196 6.2777 58.5108 6.84603 58.2264 7.38802C58.0232 7.74962 57.9468 7.93081 57.9468 9.40353C57.9468 10.8762 58.0255 11.0574 58.2264 11.419C58.5076 11.9355 59.196 12.5038 60.1649 12.5038C61.2353 12.5038 62.1025 11.8836 62.3318 10.7477L61.3393 10.7469Z" fill="white"/>
<path d="M64.5263 12.5041C65.2139 12.5041 65.6219 12.22 65.8771 11.9613C66.2087 11.5742 66.3355 11.2118 66.3355 10.2851C66.3355 9.32722 66.2087 8.96802 65.8771 8.60883C65.7033 8.42415 65.4934 8.27822 65.2608 8.18037C65.0282 8.08251 64.778 8.03487 64.5263 8.04049V8.91853C64.6617 8.91733 64.7957 8.9469 64.9183 9.00505C65.041 9.0632 65.1493 9.14847 65.2352 9.25459C65.3927 9.48687 65.44 9.64252 65.44 10.2875C65.44 10.9077 65.3888 11.0857 65.2352 11.3212C65.1083 11.5024 64.8279 11.6317 64.5263 11.6317V12.5041ZM62.7146 10.2819C62.7146 11.2118 62.8422 11.5742 63.1738 11.9582C63.4282 12.2168 63.837 12.5009 64.5255 12.5009V11.6229C64.2191 11.6229 63.9386 11.4936 63.811 11.3124C63.6322 11.0801 63.5818 10.8989 63.5818 10.2787C63.5818 9.63374 63.6322 9.48048 63.811 9.2458C63.8977 9.13912 64.0068 9.05354 64.1305 8.99537C64.2542 8.9372 64.3891 8.90794 64.5255 8.90975V8.03171C64.2736 8.02598 64.0232 8.07356 63.7905 8.17142C63.5578 8.26928 63.3477 8.41527 63.1738 8.60004C62.843 8.96563 62.7154 9.32643 62.7154 10.2819H62.7146Z" fill="white"/>
<path d="M67.3328 12.4519H68.2244V9.8689C68.2244 9.27423 68.5812 8.91104 69.0909 8.91104C69.6005 8.91104 69.9573 9.27263 69.9573 9.8689V12.4519H70.849V9.8689C70.849 9.27423 71.2318 8.91104 71.7414 8.91104C72.2258 8.91104 72.6078 9.27263 72.6078 9.8689V12.4519H73.4995V9.5584C73.5024 9.35962 73.4663 9.16223 73.3934 8.97769C73.3204 8.79315 73.2121 8.62513 73.0745 8.48337C72.937 8.34161 72.773 8.22895 72.5922 8.15191C72.4113 8.07487 72.2172 8.035 72.021 8.0346C71.409 8.0346 71.001 8.215 70.6182 8.60293C70.3133 8.29322 70.0069 8.0346 69.3697 8.0346C69.1526 8.02938 68.9371 8.07299 68.7387 8.16229C68.5402 8.25159 68.3638 8.38436 68.222 8.55105V8.08728H67.3328V12.4519Z" fill="white"/>
<path d="M76.4572 12.4774C76.5406 12.4986 76.6265 12.5072 76.7124 12.503C76.942 12.5101 77.17 12.4624 77.378 12.3636C77.586 12.2649 77.7681 12.118 77.9097 11.9347C78.1397 11.625 78.2161 11.34 78.2161 10.2808C78.2161 9.19597 78.1373 8.9118 77.9097 8.60449C77.7643 8.42561 77.5814 8.28179 77.3743 8.18349C77.1672 8.08518 76.9411 8.03485 76.7124 8.03616C76.6336 8.03616 76.5336 8.0617 76.4572 8.0617V8.9142C77.2732 8.9142 77.3236 9.61184 77.3236 10.2831C77.3236 10.9544 77.2732 11.6273 76.4572 11.6273V12.4774ZM74.6975 14.2335H75.5907V11.9873C75.8452 12.246 76.1256 12.4264 76.4572 12.4782V11.6258C75.6159 11.6258 75.5907 10.9018 75.5907 10.2815C75.5907 9.63659 75.6159 8.9126 76.4572 8.9126V8.0601C76.1246 8.12718 75.8213 8.29898 75.5907 8.55101V8.08724H74.6975V14.2335Z" fill="white"/>
<path d="M81.5298 12.452H82.3962V9.48104C82.3962 8.4218 81.6826 8.06021 80.6114 8.03467V8.86083C81.2494 8.86083 81.529 9.02047 81.529 9.42996V9.89452H80.6114V10.6177H81.529V10.9282C81.529 11.574 81.2746 11.6769 80.6114 11.6769V12.5039C81.0706 12.4784 81.351 12.3443 81.5038 12.0649H81.529L81.5298 12.452ZM80.6121 8.03467H80.5657C79.9277 8.03467 79.418 8.21507 79.0864 8.68043L79.7756 9.19688C79.9277 8.96459 80.1577 8.86083 80.6161 8.86083V8.03467H80.6121ZM80.6121 9.89452H80.3065C79.3377 9.89452 78.8533 10.4884 78.8533 11.1868C78.8533 11.9356 79.4401 12.5039 80.4081 12.5039H80.6121V11.6793H80.5334C79.9214 11.6793 79.6921 11.4215 79.6921 11.1365C79.6921 10.8268 79.9473 10.6201 80.4578 10.6201H80.6098L80.6121 9.89452Z" fill="white"/>
<path d="M86.1446 11.1868C86.0369 11.3221 85.9011 11.4315 85.7468 11.5074C85.5925 11.5833 85.4237 11.6238 85.2522 11.6259C84.5385 11.6259 84.1045 11.2379 84.1045 10.2817C84.1045 9.32539 84.5385 8.91271 85.2522 8.91271C85.4255 8.91946 85.5952 8.96463 85.7494 9.04503C85.9036 9.12543 86.0385 9.23912 86.1446 9.37807L86.8078 8.80974C86.425 8.36992 85.8902 8.03467 85.2262 8.03467C84.2069 8.03467 83.2129 8.68043 83.2129 10.2817C83.2129 11.8829 84.2069 12.5039 85.2262 12.5039C85.5277 12.5027 85.8253 12.4351 86.0985 12.3057C86.3716 12.1762 86.6137 11.9881 86.8078 11.7544L86.1446 11.1868Z" fill="white"/>
<path d="M87.4703 8.08721H87.0371V8.75931H87.4703V11.3934C87.4703 12.0655 87.9295 12.4527 88.5416 12.4527H89V11.6257H88.6684C88.4644 11.6257 88.3628 11.5459 88.3628 11.3152V8.76091H89V8.08721H88.3635V6.76855H87.4711L87.4703 8.08721Z" fill="white"/>
</g>
<defs>
<clipPath id="clip0">
<rect width="88.5411" height="27.1275" fill="white" transform="translate(0.458984 0.0253906)"/>
</clipPath>
</defs>
</svg>
